HIERARCHY
ROOT Hips
{
	OFFSET 0.000000 0.000000 0.000000
	CHANNELS 6 Xposition Yposition Zposition Yrotation Xrotation Zrotation
	JOINT Chest
	{
		OFFSET 0.000000 -0.009282 11.569106
		CHANNELS 6 Xposition Yposition Zposition Yrotation Xrotation Zrotation
		JOINT Chest2
		{
			OFFSET -0.000000 0.016863 9.269641
			CHANNELS 6 Xposition Yposition Zposition Yrotation Xrotation Zrotation
			JOINT Chest3
			{
				OFFSET -0.000000 0.000000 8.374491
				CHANNELS 6 Xposition Yposition Zposition Yrotation Xrotation Zrotation
				JOINT Chest4
				{
					OFFSET -0.000000 0.000000 8.374493
					CHANNELS 6 Xposition Yposition Zposition Yrotation Xrotation Zrotation
					JOINT Neck
					{
						OFFSET -0.000000 0.000001 12.152554
						CHANNELS 6 Xposition Yposition Zposition Yrotation Xrotation Zrotation
						JOINT Head
						{
							OFFSET -0.000000 0.040100 7.802319
							CHANNELS 6 Xposition Yposition Zposition Yrotation Xrotation Zrotation
							End Site
							{
								OFFSET -0.000000 0.020946 14.853096
							}
						}
					}
					JOINT RightCollar
					{
						OFFSET 2.894404 0.000001 6.791374
						CHANNELS 6 Xposition Yposition Zposition Yrotation Xrotation Zrotation
						JOINT RightShoulder
						{
							OFFSET 13.574684 0.000001 0.000000
							CHANNELS 6 Xposition Yposition Zposition Yrotation Xrotation Zrotation
							JOINT RightElbow
							{
								OFFSET 23.923903 0.000002 0.000000
								CHANNELS 6 Xposition Yposition Zposition Yrotation Xrotation Zrotation
								JOINT RightWrist
								{
									OFFSET 19.846718 0.012767 0.000000
									CHANNELS 6 Xposition Yposition Zposition Yrotation Xrotation Zrotation
									End Site
									{
										OFFSET 14.973145 0.000001 0.000000
									}
								}
							}
						}
					}
					JOINT LeftCollar
					{
						OFFSET -2.894404 0.000000 6.791374
						CHANNELS 6 Xposition Yposition Zposition Yrotation Xrotation Zrotation
						JOINT LeftShoulder
						{
							OFFSET -13.574684 -0.000001 0.000000
							CHANNELS 6 Xposition Yposition Zposition Yrotation Xrotation Zrotation
							JOINT LeftElbow
							{
								OFFSET -23.923903 -0.000002 0.000000
								CHANNELS 6 Xposition Yposition Zposition Yrotation Xrotation Zrotation
								JOINT LeftWrist
								{
									OFFSET -19.846718 0.012763 0.000000
									CHANNELS 6 Xposition Yposition Zposition Yrotation Xrotation Zrotation
									End Site
									{
										OFFSET -14.973145 -0.000001 0.000000
									}
								}
							}
						}
					}
				}
			}
		}
	}
	JOINT RightHip
	{
		OFFSET 9.469263 0.004643 0.045487
		CHANNELS 6 Xposition Yposition Zposition Yrotation Xrotation Zrotation
		JOINT RightKnee
		{
			OFFSET 0.000000 0.002666 -40.478676
			CHANNELS 6 Xposition Yposition Zposition Yrotation Xrotation Zrotation
			JOINT RightAnkle
			{
				OFFSET 0.000000 0.049110 -35.224068
				CHANNELS 6 Xposition Yposition Zposition Yrotation Xrotation Zrotation
				JOINT RightToe
				{
					OFFSET -0.000001 12.539530 -6.151390
					CHANNELS 6 Xposition Yposition Zposition Yrotation Xrotation Zrotation
					End Site
					{
						OFFSET -0.000001 5.044996 -1.291870
					}
				}
			}
		}
	}
	JOINT LeftHip
	{
		OFFSET -9.469263 0.004641 0.045487
		CHANNELS 6 Xposition Yposition Zposition Yrotation Xrotation Zrotation
		JOINT LeftKnee
		{
			OFFSET 0.000000 0.002666 -40.478676
			CHANNELS 6 Xposition Yposition Zposition Yrotation Xrotation Zrotation
			JOINT LeftAnkle
			{
				OFFSET 0.000000 0.049110 -35.224068
				CHANNELS 6 Xposition Yposition Zposition Yrotation Xrotation Zrotation
				JOINT LeftToe
				{
					OFFSET -0.000001 12.539530 -6.151390
					CHANNELS 6 Xposition Yposition Zposition Yrotation Xrotation Zrotation
					End Site
					{
						OFFSET -0.000001 5.044996 -1.291870
					}
				}
			}
		}
	}
}
MOTION
Frames: 4
Frame Time: 0.016667
4.806250 5.631115 83.056107 -9.844033 -2.665313 -104.486205 0.000001 -0.009281 11.569099 0.313532 -1.949333 -0.454574 0.000000 0.016862 9.269620 0.137741 -0.865494 -0.207977 0.000001 0.000001 8.374489 0.137741 -0.865493 -0.207974 0.000000 0.000002 8.374506 0.103009 -0.649168 -0.155787 0.000001 -0.000001 12.152571 3.217369 -17.228643 -7.918889 -0.000000 0.040102 7.802290 3.220629 4.143992 -13.526340 2.894404 0.000000 6.791387 4.388836 -3.659559 -8.632326 13.574687 0.000001 -0.000016 69.788476 -0.397201 37.469042 23.923895 0.000013 -0.000002 48.139248 -39.323783 48.019676 19.846712 0.012769 -0.000004 -37.795282 22.051942 24.159723 -2.894403 -0.000001 6.791386 -8.075698 -1.304039 -3.483095 -13.574686 -0.000002 0.000007 -63.909431 -20.697302 -41.163682 -23.923908 -0.000000 -0.000003 -18.241794 5.892507 -36.718134 -19.846712 0.012772 0.000004 28.622557 19.414210 -37.427121 9.469263 0.004646 0.045483 1.267666 -12.987375 -9.710840 0.000131 0.002656 -40.478493 -4.459742 3.721486 -3.109765 -0.000002 0.049107 -35.224072 5.514200 0.018990 0.025223 0.000000 12.539527 -6.151395 0.011008 -0.014061 0.012074 -9.469262 0.004645 0.045479 0.090598 -13.391518 -23.489507 -0.000840 0.002517 -40.478428 -0.461994 5.897330 18.290072 -0.000931 0.048944 -35.224110 0.300580 -0.980103 20.340431 0.000000 12.539531 -6.151395 -0.017566 -0.021000 -0.014776 
4.804754 5.617294 83.055275 -9.844106 -2.659955 -104.487722 -0.000000 -0.009284 11.569100 0.304630 -1.933196 -0.456198 -0.000000 0.016863 9.269650 0.134258 -0.858584 -0.207477 0.000001 0.000000 8.374499 0.134258 -0.858586 -0.207478 0.000000 0.000001 8.374480 0.100400 -0.643984 -0.155418 -0.000001 0.000000 12.152575 3.182752 -17.171859 -7.904700 -0.000002 0.040100 7.802325 3.156941 4.246860 -13.514013 2.894403 0.000000 6.791381 4.360395 -3.613425 -8.589732 13.574683 0.000001 -0.000012 69.677867 -0.615557 37.553644 23.923912 0.000016 -0.000003 51.775781 -37.580814 46.324044 19.846710 0.012762 -0.000006 -37.860777 23.111951 23.595657 -2.894404 -0.000001 6.791385 -8.044149 -1.272651 -3.513357 -13.574683 -0.000001 -0.000006 -63.770608 -20.563504 -41.266828 -23.923916 -0.000003 0.000005 -19.717711 6.259009 -37.265051 -19.846716 0.012764 0.000002 28.636412 20.849680 -34.779060 9.469261 0.004642 0.045485 1.275640 -12.989850 -9.717004 0.000131 0.002657 -40.478497 -4.460966 3.724584 -3.104102 -0.000002 0.049105 -35.224075 5.504510 0.024370 0.022829 -0.000000 12.539529 -6.151395 0.009403 -0.014815 0.013990 -9.469261 0.004640 0.045481 0.092672 -13.387750 -23.526126 -0.000840 0.002516 -40.478416 -0.456428 5.887625 18.293482 -0.000926 0.048944 -35.224110 0.293525 -0.978897 20.303147 -0.000001 12.539535 -6.151392 -0.022139 -0.018729 -0.018189 
4.804959 5.600883 83.055145 -9.851586 -2.656976 -104.485857 0.000001 -0.009281 11.569107 0.298112 -1.916707 -0.463918 -0.000000 0.016864 9.269641 0.131639 -0.851054 -0.208927 -0.000001 -0.000000 8.374485 0.131639 -0.851053 -0.208925 -0.000000 0.000000 8.374496 0.098436 -0.638336 -0.156506 -0.000001 0.000003 12.152555 3.152679 -17.146232 -7.892459 -0.000001 0.040102 7.802320 3.103539 4.292329 -13.502691 2.894404 0.000001 6.791365 4.332659 -3.562211 -8.537759 13.574682 0.000002 -0.000011 69.606963 -0.832189 37.663811 23.923903 0.000008 0.000001 54.831929 -35.868335 45.139894 19.846710 0.012769 0.000003 -37.942630 24.160573 22.815393 -2.894404 0.000001 6.791378 -8.002887 -1.258268 -3.535352 -13.574685 -0.000001 0.000007 -63.662520 -20.454448 -41.353459 -23.923906 0.000013 -0.000002 -21.295053 6.735198 -37.982504 -19.846714 0.012759 -0.000008 28.724053 22.215050 -32.082700 9.469265 0.004645 0.045481 1.287792 -13.005751 -9.740690 0.000130 0.002657 -40.478485 -4.465738 3.733902 -3.091494 -0.000003 0.049106 -35.224068 5.500572 0.030761 0.026975 -0.000002 12.539527 -6.151402 0.005615 -0.016130 0.014653 -9.469262 0.004643 0.045484 0.094886 -13.388214 -23.564687 -0.000839 0.002516 -40.478436 -0.451677 5.872177 18.299641 -0.000930 0.048943 -35.224110 0.287228 -0.973248 20.322792 0.000000 12.539533 -6.151402 -0.025915 -0.017603 -0.019325 
4.805614 5.583538 83.054916 -9.865068 -2.659190 -104.485283 0.000001 -0.009281 11.569101 0.290943 -1.898502 -0.470988 0.000001 0.016863 9.269636 0.128833 -0.842877 -0.210470 0.000001 0.000001 8.374492 0.128833 -0.842878 -0.210468 0.000000 0.000002 8.374496 0.096333 -0.632203 -0.157668 0.000000 0.000000 12.152558 3.136505 -17.155822 -7.885838 -0.000001 0.040101 7.802310 3.076761 4.273514 -13.495743 2.894404 0.000000 6.791382 4.326554 -3.520099 -8.484692 13.574688 0.000002 0.000000 69.570955 -0.917211 37.848240 23.923901 0.000005 0.000002 57.776297 -34.257066 44.096067 19.846712 0.012770 -0.000001 -37.885960 25.116371 22.148048 -2.894404 -0.000001 6.791379 -7.975681 -1.256356 -3.566792 -13.574685 -0.000001 -0.000005 -63.598200 -20.290165 -41.426395 -23.923908 0.000005 0.000000 -22.940184 7.221641 -38.779908 -19.846722 0.012758 0.000006 28.863024 23.433290 -29.343889 9.469263 0.004644 0.045487 1.299796 -13.025301 -9.757817 0.000130 0.002657 -40.478493 -4.465213 3.735623 -3.085460 -0.000003 0.049106 -35.224056 5.493382 0.040566 0.034134 -0.000001 12.539529 -6.151388 0.002989 -0.017453 0.014616 -9.469261 0.004643 0.045483 0.104908 -13.395888 -23.590732 -0.000839 0.002518 -40.478420 -0.454269 5.856833 18.284992 -0.000931 0.048942 -35.224098 0.284421 -0.965175 20.369868 0.000000 12.539533 -6.151394 -0.030572 -0.016988 -0.019685 
